<svg width="100" height="100" viewBox="0 0 100 100" fill="none" xmlns="http://www.w3.org/2000/svg">
<path fill-rule="evenodd" clip-rule="evenodd" d="M50 4C24.585 4 4 24.585 4 50C4 70.355 17.1675 87.5475 35.4525 93.6425C37.7525 94.045 38.615 92.665 38.615 91.4575C38.615 90.365 38.5575 86.7425 38.5575 82.89C27 85.0175 24.01 80.0725 23.09 77.485C22.5725 76.1625 20.33 72.08 18.375 70.9875C16.765 70.125 14.465 67.9975 18.3175 67.94C21.94 67.8825 24.5275 71.275 25.39 72.655C29.53 79.6125 36.1425 77.6575 38.7875 76.45C39.19 73.46 40.3975 71.4475 41.72 70.2975C31.485 69.1475 20.79 65.18 20.79 47.585C20.79 42.5825 22.5725 38.4425 25.505 35.2225C25.045 34.0725 23.435 29.3575 25.965 23.0325C25.965 23.0325 29.8175 21.825 38.615 27.7475C42.295 26.7125 46.205 26.195 50.115 26.195C54.025 26.195 57.935 26.7125 61.615 27.7475C70.4125 21.7675 74.265 23.0325 74.265 23.0325C76.795 29.3575 75.185 34.0725 74.725 35.2225C77.6575 38.4425 79.44 42.525 79.44 47.585C79.44 65.2375 68.6875 69.1475 58.4525 70.2975C60.12 71.735 61.5575 74.495 61.5575 78.8075C61.5575 84.96 61.5 89.905 61.5 91.4575C61.5 92.665 62.3625 94.1025 64.6625 93.6425C73.7942 90.5594 81.7292 84.6904 87.3507 76.8616C92.9722 69.0327 95.9972 59.6381 96 50C96 24.585 75.415 4 50 4Z" fill="black"/>
</svg>
