<svg width="816" height="1104" viewBox="0 0 816 1104" fill="none" xmlns="http://www.w3.org/2000/svg">
<g clip-path="url(#clip0_103_1928)">
<rect x="769" y="49" width="48" height="48" fill="#272323"/>
<rect x="240" y="769" width="48" height="48" transform="rotate(-90 240 769)" fill="#272323"/>
<rect x="48" y="768" width="48" height="48" transform="rotate(-90 48 768)" fill="#272323"/>
<rect x="289" y="625" width="48" height="48" transform="rotate(180 289 625)" fill="#272323"/>
<rect x="97" y="624" width="48" height="48" transform="rotate(180 97 624)" fill="#272323"/>
<rect x="242" y="97" width="48" height="48" transform="rotate(-90 242 97)" fill="#272323"/>
<rect x="50" y="96" width="48" height="48" transform="rotate(-90 50 96)" fill="#272323"/>
<rect x="816" y="577" width="48" height="48" transform="rotate(90 816 577)" fill="#272323"/>
<rect x="768" y="722" width="48" height="48" fill="#272323"/>
<rect x="673" y="145" width="48" height="48" fill="#1363DF"/>
<rect x="336" y="865" width="48" height="48" transform="rotate(-90 336 865)" fill="#1363DF"/>
<rect x="144" y="864" width="48" height="48" transform="rotate(-90 144 864)" fill="#1363DF"/>
<rect x="385" y="529" width="48" height="48" transform="rotate(180 385 529)" fill="#1363DF"/>
<rect x="193" y="528" width="48" height="48" transform="rotate(180 193 528)" fill="#1363DF"/>
<rect x="338" y="193" width="48" height="48" transform="rotate(-90 338 193)" fill="#1363DF"/>
<rect x="146" y="192" width="48" height="48" transform="rotate(-90 146 192)" fill="#1363DF"/>
<rect x="720" y="481" width="48" height="48" transform="rotate(90 720 481)" fill="#1363DF"/>
<rect x="672" y="818" width="48" height="48" fill="#1363DF"/>
<rect x="672" y="241" width="48" height="48" fill="#272323"/>
<rect x="432" y="866" width="48" height="48" transform="rotate(-90 432 866)" fill="#272323"/>
<rect x="386" y="433" width="48" height="48" transform="rotate(180 386 433)" fill="#272323"/>
<rect x="194" y="432" width="48" height="48" transform="rotate(180 194 432)" fill="#272323"/>
<rect x="625" y="289" width="48" height="48" fill="#1363DF"/>
<rect x="480" y="913" width="48" height="48" transform="rotate(-90 480 913)" fill="#1363DF"/>
<rect x="433" y="385" width="48" height="48" transform="rotate(180 433 385)" fill="#1363DF"/>
<rect x="338" y="289" width="48" height="48" transform="rotate(180 338 289)" fill="#CA3E47"/>
<rect x="146" y="288" width="48" height="48" transform="rotate(180 146 288)" fill="#CA3E47"/>
<rect x="529" y="193" width="48" height="48" fill="#CA3E47"/>
<rect x="384" y="1009" width="48" height="48" transform="rotate(-90 384 1009)" fill="#CA3E47"/>
<rect x="529" y="481" width="48" height="48" transform="rotate(180 529 481)" fill="#CA3E47"/>
<rect x="672" y="1009" width="48" height="48" transform="rotate(90 672 1009)" fill="#CA3E47"/>
<rect x="433" y="97" width="48" height="48" fill="#1363DF"/>
<rect x="288" y="1105" width="48" height="48" transform="rotate(-90 288 1105)" fill="#1363DF"/>
<rect x="96" y="1104" width="48" height="48" transform="rotate(-90 96 1104)" fill="#1363DF"/>
<rect x="768" y="432" width="48" height="48" transform="rotate(90 768 432)" fill="#1363DF"/>
<rect x="623" y="770" width="48" height="48" fill="#1363DF"/>
<rect x="625" y="577" width="48" height="48" transform="rotate(180 625 577)" fill="#1363DF"/>
<rect x="768" y="913" width="48" height="48" transform="rotate(90 768 913)" fill="#1363DF"/>
<rect x="528" y="289" width="24" height="24" rx="12" fill="#272323"/>
<rect x="480" y="1010" width="24" height="24" rx="12" transform="rotate(-90 480 1010)" fill="#272323"/>
<rect x="530" y="385" width="24" height="24" rx="12" transform="rotate(180 530 385)" fill="#272323"/>
<rect x="576" y="1008" width="24" height="24" rx="12" transform="rotate(90 576 1008)" fill="#272323"/>
<rect x="481" y="721" width="24" height="24" rx="12" transform="rotate(180 481 721)" fill="#272323"/>
<rect x="242" y="385" width="24" height="24" rx="12" transform="rotate(90 242 385)" fill="#272323"/>
<rect x="50" y="384" width="24" height="24" rx="12" transform="rotate(90 50 384)" fill="#272323"/>
<rect x="577" y="49" width="24" height="24" rx="12" transform="rotate(-90 577 49)" fill="#272323"/>
<rect x="240" y="961" width="24" height="24" rx="12" transform="rotate(180 240 961)" fill="#272323"/>
<rect x="48" y="960" width="24" height="24" rx="12" transform="rotate(180 48 960)" fill="#272323"/>
<rect x="481" y="625" width="24" height="24" rx="12" transform="rotate(90 481 625)" fill="#272323"/>
<rect x="386" y="1" width="48" height="48" rx="24" fill="#272323"/>
<rect y="1151" width="48" height="48" rx="24" transform="rotate(-90 0 1151)" fill="#272323"/>
<rect x="579" y="673" width="48" height="48" rx="24" fill="#272323"/>
<rect x="672" y="673" width="48" height="48" rx="24" transform="rotate(180 672 673)" fill="#272323"/>
<rect x="528" y="313" width="24" height="24" rx="12" fill="#1363DF"/>
<rect x="504" y="1010" width="24" height="24" rx="12" transform="rotate(-90 504 1010)" fill="#1363DF"/>
<rect x="530" y="361" width="24" height="24" rx="12" transform="rotate(180 530 361)" fill="#1363DF"/>
<rect x="552" y="1008" width="24" height="24" rx="12" transform="rotate(90 552 1008)" fill="#1363DF"/>
<rect x="481" y="697" width="24" height="24" rx="12" transform="rotate(180 481 697)" fill="#1363DF"/>
<rect x="218" y="385" width="24" height="24" rx="12" transform="rotate(90 218 385)" fill="#1363DF"/>
<rect x="26" y="384" width="24" height="24" rx="12" transform="rotate(90 26 384)" fill="#1363DF"/>
<rect x="601" y="49" width="24" height="24" rx="12" transform="rotate(-90 601 49)" fill="#1363DF"/>
<rect x="240" y="937" width="24" height="24" rx="12" transform="rotate(180 240 937)" fill="#1363DF"/>
<rect x="48" y="936" width="24" height="24" rx="12" transform="rotate(180 48 936)" fill="#1363DF"/>
<rect x="457" y="625" width="24" height="24" rx="12" transform="rotate(90 457 625)" fill="#1363DF"/>
<rect x="551" y="289" width="24" height="24" rx="12" fill="#1363DF"/>
<rect x="480" y="987" width="24" height="24" rx="12" transform="rotate(-90 480 987)" fill="#1363DF"/>
<rect x="507" y="385" width="24" height="24" rx="12" transform="rotate(180 507 385)" fill="#1363DF"/>
<rect x="576" y="1031" width="24" height="24" rx="12" transform="rotate(90 576 1031)" fill="#1363DF"/>
<rect x="457" y="721" width="24" height="24" rx="12" transform="rotate(180 457 721)" fill="#1363DF"/>
<rect x="242" y="409" width="24" height="24" rx="12" transform="rotate(90 242 409)" fill="#1363DF"/>
<rect x="50" y="408" width="24" height="24" rx="12" transform="rotate(90 50 408)" fill="#1363DF"/>
<rect x="577" y="25" width="24" height="24" rx="12" transform="rotate(-90 577 25)" fill="#1363DF"/>
<rect x="216" y="961" width="24" height="24" rx="12" transform="rotate(180 216 961)" fill="#1363DF"/>
<rect x="24" y="960" width="24" height="24" rx="12" transform="rotate(180 24 960)" fill="#1363DF"/>
<rect x="481" y="649" width="24" height="24" rx="12" transform="rotate(90 481 649)" fill="#1363DF"/>
<rect x="721" y="97" width="24" height="24" rx="12" transform="rotate(-90 721 97)" fill="#1363DF"/>
<rect x="288" y="817" width="24" height="24" rx="12" transform="rotate(180 288 817)" fill="#1363DF"/>
<rect x="96" y="816" width="24" height="24" rx="12" transform="rotate(180 96 816)" fill="#1363DF"/>
<rect x="337" y="577" width="24" height="24" rx="12" transform="rotate(90 337 577)" fill="#1363DF"/>
<rect x="145" y="576" width="24" height="24" rx="12" transform="rotate(90 145 576)" fill="#1363DF"/>
<rect x="290" y="145" width="24" height="24" rx="12" transform="rotate(180 290 145)" fill="#1363DF"/>
<rect x="290" y="217" width="24" height="24" rx="12" transform="rotate(180 290 217)" fill="#1363DF"/>
<rect x="98" y="216" width="24" height="24" rx="12" transform="rotate(180 98 216)" fill="#1363DF"/>
<rect x="266" y="240" width="24" height="24" rx="12" transform="rotate(180 266 240)" fill="#1363DF"/>
<rect x="74" y="239" width="24" height="24" rx="12" transform="rotate(180 74 239)" fill="#1363DF"/>
<rect x="98" y="144" width="24" height="24" rx="12" transform="rotate(180 98 144)" fill="#1363DF"/>
<rect x="768" y="529" width="24" height="24" rx="12" fill="#1363DF"/>
<rect x="720" y="770" width="24" height="24" rx="12" transform="rotate(-90 720 770)" fill="#1363DF"/>
<rect x="769" y="145" width="24" height="24" rx="12" transform="rotate(-90 769 145)" fill="#1363DF"/>
<rect x="336" y="769" width="24" height="24" rx="12" transform="rotate(180 336 769)" fill="#1363DF"/>
<rect x="144" y="768" width="24" height="24" rx="12" transform="rotate(180 144 768)" fill="#1363DF"/>
<rect x="289" y="529" width="24" height="24" rx="12" transform="rotate(90 289 529)" fill="#1363DF"/>
<rect x="97" y="528" width="24" height="24" rx="12" transform="rotate(90 97 528)" fill="#1363DF"/>
<rect x="338" y="97" width="24" height="24" rx="12" transform="rotate(180 338 97)" fill="#1363DF"/>
<rect x="146" y="96" width="24" height="24" rx="12" transform="rotate(180 146 96)" fill="#1363DF"/>
<rect x="720" y="577" width="24" height="24" rx="12" fill="#1363DF"/>
<rect x="768" y="818" width="24" height="24" rx="12" transform="rotate(-90 768 818)" fill="#1363DF"/>
<rect x="434" y="1" width="48" height="48" rx="24" fill="#1363DF"/>
<rect x="192" y="1104" width="48" height="48" rx="24" transform="rotate(-90 192 1104)" fill="#1363DF"/>
<rect y="1103" width="48" height="48" rx="24" transform="rotate(-90 0 1103)" fill="#1363DF"/>
<rect x="627" y="673" width="48" height="48" rx="24" fill="#1363DF"/>
<rect x="624" y="673" width="48" height="48" rx="24" transform="rotate(180 624 673)" fill="#1363DF"/>
<rect x="552" y="337" width="24" height="24" rx="12" transform="rotate(-90 552 337)" fill="#CA3E47"/>
<rect x="528" y="986" width="24" height="24" rx="12" transform="rotate(180 528 986)" fill="#CA3E47"/>
<rect x="506" y="337" width="24" height="24" rx="12" transform="rotate(90 506 337)" fill="#CA3E47"/>
<rect x="528" y="1032" width="24" height="24" rx="12" fill="#CA3E47"/>
<rect x="457" y="673" width="24" height="24" rx="12" transform="rotate(90 457 673)" fill="#CA3E47"/>
<rect x="194" y="409" width="24" height="24" rx="12" fill="#CA3E47"/>
<rect x="2" y="408" width="24" height="24" rx="12" fill="#CA3E47"/>
<rect x="625" y="25" width="24" height="24" rx="12" transform="rotate(180 625 25)" fill="#CA3E47"/>
<rect x="216" y="913" width="24" height="24" rx="12" transform="rotate(90 216 913)" fill="#CA3E47"/>
<rect x="24" y="912" width="24" height="24" rx="12" transform="rotate(90 24 912)" fill="#CA3E47"/>
<rect x="433" y="649" width="24" height="24" rx="12" fill="#CA3E47"/>
<rect x="433" y="97" width="48" height="48" rx="24" transform="rotate(-90 433 97)" fill="#CA3E47"/>
<rect x="288" y="1105" width="48" height="48" rx="24" transform="rotate(180 288 1105)" fill="#CA3E47"/>
<rect x="96" y="1104" width="48" height="48" rx="24" transform="rotate(180 96 1104)" fill="#CA3E47"/>
<rect x="768" y="432" width="48" height="48" rx="24" fill="#CA3E47"/>
<rect x="623" y="770" width="48" height="48" rx="24" transform="rotate(-90 623 770)" fill="#CA3E47"/>
<rect x="625" y="577" width="48" height="48" rx="24" transform="rotate(90 625 577)" fill="#CA3E47"/>
<rect x="768" y="913" width="48" height="48" rx="24" fill="#CA3E47"/>
<rect x="577" y="337" width="48" height="48" fill="#CA3E47"/>
<rect x="528" y="961" width="48" height="48" transform="rotate(-90 528 961)" fill="#CA3E47"/>
<rect x="481" y="337" width="48" height="48" transform="rotate(180 481 337)" fill="#CA3E47"/>
<rect x="528" y="1057" width="48" height="48" transform="rotate(90 528 1057)" fill="#CA3E47"/>
<rect x="672" y="433" width="48" height="48" fill="#272323"/>
<rect x="624" y="866" width="48" height="48" transform="rotate(-90 624 866)" fill="#272323"/>
<rect x="386" y="241" width="48" height="48" transform="rotate(180 386 241)" fill="#272323"/>
<rect x="194" y="240" width="48" height="48" transform="rotate(180 194 240)" fill="#272323"/>
<rect x="481" y="241" width="48" height="48" fill="#272323"/>
<rect x="432" y="1057" width="48" height="48" transform="rotate(-90 432 1057)" fill="#272323"/>
<rect x="577" y="433" width="48" height="48" transform="rotate(180 577 433)" fill="#272323"/>
<rect x="624" y="961" width="48" height="48" transform="rotate(90 624 961)" fill="#272323"/>
<rect x="385" y="145" width="48" height="48" fill="#CA3E47"/>
<rect x="673" y="529" width="48" height="48" transform="rotate(180 673 529)" fill="#CA3E47"/>
<rect x="720" y="865" width="48" height="48" transform="rotate(90 720 865)" fill="#CA3E47"/>
<rect x="768" y="337" width="48" height="48" fill="#1363DF"/>
<rect x="528" y="770" width="48" height="48" transform="rotate(-90 528 770)" fill="#1363DF"/>
<rect x="290" y="337" width="48" height="48" transform="rotate(180 290 337)" fill="#1363DF"/>
<rect x="98" y="336" width="48" height="48" transform="rotate(180 98 336)" fill="#1363DF"/>
<rect x="577" y="145" width="48" height="48" fill="#1363DF"/>
<rect x="336" y="961" width="48" height="48" transform="rotate(-90 336 961)" fill="#1363DF"/>
<rect x="144" y="960" width="48" height="48" transform="rotate(-90 144 960)" fill="#1363DF"/>
<rect x="481" y="529" width="48" height="48" transform="rotate(180 481 529)" fill="#1363DF"/>
<rect x="720" y="1057" width="48" height="48" transform="rotate(90 720 1057)" fill="#1363DF"/>
<rect x="481" y="49" width="48" height="48" fill="#272323"/>
<rect x="240" y="1057" width="48" height="48" transform="rotate(-90 240 1057)" fill="#272323"/>
<rect x="48" y="1056" width="48" height="48" transform="rotate(-90 48 1056)" fill="#272323"/>
<rect x="577" y="625" width="48" height="48" transform="rotate(180 577 625)" fill="#272323"/>
<rect x="816" y="961" width="48" height="48" transform="rotate(90 816 961)" fill="#272323"/>
<path d="M241 673L193 721L193 673L241 673Z" fill="#CA3E47"/>
<path d="M49 672L1 720L0.999996 672L49 672Z" fill="#CA3E47"/>
<path d="M193 625L241 673L193 673L193 625Z" fill="#CA3E47"/>
<path d="M1 624L49 672L1.00001 672L1 624Z" fill="#CA3E47"/>
<path d="M242 1L194 49L194 1.00001L242 1Z" fill="#CA3E47"/>
<path d="M50 0L2 48L2 6.29444e-06L50 0Z" fill="#CA3E47"/>
<path d="M720 721L768 673L720 673L720 721Z" fill="#CA3E47"/>
<path d="M289 673L241 721L241 673L289 673Z" fill="#CA3E47"/>
<path d="M97 672L49 720L49 672L97 672Z" fill="#CA3E47"/>
<path d="M193 577L241 625L193 625L193 577Z" fill="#CA3E47"/>
<path d="M1 576L49 624L1.00001 624L1 576Z" fill="#CA3E47"/>
<path d="M290 1L242 49L242 1.00001L290 1Z" fill="#CA3E47"/>
<path d="M98 0L50 48L50 6.29444e-06L98 0Z" fill="#CA3E47"/>
<path d="M768 673L816 625L816 673L768 673Z" fill="#CA3E47"/>
<path d="M817 49L769 1L817 0.999996L817 49Z" fill="#CA3E47"/>
<path d="M240 721L192 769L192 721L240 721Z" fill="#CA3E47"/>
<path d="M48 720L2.56915e-06 768L-3.72529e-06 720L48 720Z" fill="#CA3E47"/>
<path d="M241 625L289 673L241 673L241 625Z" fill="#CA3E47"/>
<path d="M49 624L97 672L49 672L49 624Z" fill="#CA3E47"/>
<path d="M242 49L194 97L194 49L242 49Z" fill="#CA3E47"/>
<path d="M50 48L2 96L2 48L50 48Z" fill="#CA3E47"/>
<path d="M768 721L816 673L768 673L768 721Z" fill="#CA3E47"/>
<path d="M769 193L673 97L769 97L769 193Z" fill="#272323"/>
<path d="M384 769L288 865L288 769L384 769Z" fill="#272323"/>
<path d="M192 768L96 864L96 768L192 768Z" fill="#272323"/>
<path d="M289 481L385 577L289 577L289 481Z" fill="#272323"/>
<path d="M97 480L193 576L97 576L97 480Z" fill="#272323"/>
<path d="M386 97L290 193L290 97L386 97Z" fill="#272323"/>
<path d="M194 96L98 192L98 96L194 96Z" fill="#272323"/>
<path d="M672 577L768 481L768 577L672 577Z" fill="#272323"/>
<path d="M768 866L672 770L768 770L768 866Z" fill="#272323"/>
<path d="M672 289L576 193L672 193L672 289Z" fill="#272323"/>
<path d="M480 866L384 962L384 866L480 866Z" fill="#272323"/>
<path d="M386 385L482 481L386 481L386 385Z" fill="#272323"/>
<path d="M576 1152L672 1056L672 1152L576 1152Z" fill="#272323"/>
<path d="M529 241L433 145L529 145L529 241Z" fill="#272323"/>
<path d="M432 1009L336 1105L336 1009L432 1009Z" fill="#272323"/>
<path d="M529 433L625 529L529 529L529 433Z" fill="#272323"/>
<path d="M624 1009L720 913L720 1009L624 1009Z" fill="#272323"/>
<path d="M720 433L624 337L720 337L720 433Z" fill="#272323"/>
<path d="M624 818L528 914L528 818L624 818Z" fill="#272323"/>
<path d="M338 241L434 337L338 337L338 241Z" fill="#272323"/>
<path d="M146 240L242 336L146 336L146 240Z" fill="#272323"/>
<path d="M768 289L672 193L768 193L768 289Z" fill="#CA3E47"/>
<path d="M480 769L384 865L384 769L480 769Z" fill="#CA3E47"/>
<path d="M290 385L386 481L290 481L290 385Z" fill="#CA3E47"/>
<path d="M98 384L194 480L98 480L98 384Z" fill="#CA3E47"/>
<path d="M385 721L433 673L433 721L385 721Z" fill="#272323"/>
<path d="M242 481L194 433L242 433L242 481Z" fill="#272323"/>
<path d="M50 480L2 432L50 432L50 480Z" fill="#272323"/>
<path d="M625 1L673 49L625 49V1Z" fill="#272323"/>
<path d="M192 913L240 865L240 913L192 913Z" fill="#272323"/>
<path d="M0 912L48 864L48 912L0 912Z" fill="#272323"/>
<path d="M433 673L385 625L433 625L433 673Z" fill="#272323"/>
<path d="M433 97L385 49L433 49L433 97Z" fill="#272323"/>
<path d="M768 432L816 384L816 432L768 432Z" fill="#272323"/>
<path d="M623 770L575 722L623 722L623 770Z" fill="#272323"/>
<path d="M433 145L385 97L433 97L433 145Z" fill="#272323"/>
<path d="M720 432L768 384L768 432L720 432Z" fill="#CA3E47"/>
<path d="M623 818L575 770L623 770L623 818Z" fill="#CA3E47"/>
<path d="M624 577L672 625L624 625L624 577Z" fill="#272323"/>
<path d="M768 914L816 866L816 914L768 914Z" fill="#272323"/>
<path d="M673 1L721 49L673 49V1Z" fill="#CA3E47"/>
<path d="M192 865L240 817L240 865L192 865Z" fill="#CA3E47"/>
<path d="M0 864L48 816L48 864L0 864Z" fill="#CA3E47"/>
<path d="M385 673L337 625L385 625L385 673Z" fill="#CA3E47"/>
<path d="M193 672L145 624L193 624L193 672Z" fill="#CA3E47"/>
<path d="M194 193L242 145L242 193L194 193Z" fill="#CA3E47"/>
<path d="M2 192L50 144L50 192L2 192Z" fill="#CA3E47"/>
<path d="M672 674L720 722L672 722L672 674Z" fill="#CA3E47"/>
<path d="M769 97L721 49L769 49V97Z" fill="#CA3E47"/>
<path d="M288 769L240 817L240 769L288 769Z" fill="#CA3E47"/>
<path d="M96 768L48 816L48 768L96 768Z" fill="#CA3E47"/>
<path d="M289 577L337 625L289 625L289 577Z" fill="#CA3E47"/>
<path d="M97 576L145 624L97 624L97 576Z" fill="#CA3E47"/>
<path d="M290 97L242 145L242 97L290 97Z" fill="#CA3E47"/>
<path d="M98 96L50 144L50 96L98 96Z" fill="#CA3E47"/>
<path d="M768 577L816 529L816 577L768 577Z" fill="#CA3E47"/>
<path d="M768 770L720 722L768 722L768 770Z" fill="#CA3E47"/>
<path d="M817 145L769 97H817V145Z" fill="#CA3E47"/>
<path d="M336 721L288 769L288 721L336 721Z" fill="#CA3E47"/>
<path d="M144 720L96 768L96 720L144 720Z" fill="#CA3E47"/>
<path d="M241 529L289 577L241 577L241 529Z" fill="#CA3E47"/>
<path d="M49 528L97 576L49 576L49 528Z" fill="#CA3E47"/>
<path d="M338 49L290 97L290 49L338 49Z" fill="#CA3E47"/>
<path d="M146 48L98 96L98 48L146 48Z" fill="#CA3E47"/>
<path d="M720 625L768 577L768 625L720 625Z" fill="#CA3E47"/>
<path d="M816 818L768 770L816 770L816 818Z" fill="#CA3E47"/>
<path d="M337 721L385 673L385 721L337 721Z" fill="#CA3E47"/>
<path d="M145 720L193 672L193 720L145 720Z" fill="#CA3E47"/>
<path d="M241 529L193 481L241 481L241 529Z" fill="#CA3E47"/>
<path d="M49 528L0.999998 480L49 480L49 528Z" fill="#CA3E47"/>
<path d="M338 49L386 1L386 49L338 49Z" fill="#CA3E47"/>
<path d="M146 48L194 -2.50403e-07L194 48L146 48Z" fill="#CA3E47"/>
<path d="M720 625L672 673L672 625L720 625Z" fill="#CA3E47"/>
<path d="M577 241L625 289H577V241Z" fill="#CA3E47"/>
<path d="M432 961L480 913L480 961L432 961Z" fill="#CA3E47"/>
<path d="M481 433L433 385L481 385L481 433Z" fill="#CA3E47"/>
<path d="M624 1057L576 1105L576 1057L624 1057Z" fill="#CA3E47"/>
<path d="M434 193L482 241H434V193Z" fill="#CA3E47"/>
<path d="M384 1104L432 1056L432 1104L384 1104Z" fill="#CA3E47"/>
<path d="M624 481L576 433L624 433L624 481Z" fill="#CA3E47"/>
<path d="M672 914L624 962L624 914L672 914Z" fill="#CA3E47"/>
<path d="M625 385L673 433H625V385Z" fill="#CA3E47"/>
<path d="M576 913L624 865L624 913L576 913Z" fill="#CA3E47"/>
<path d="M433 289L385 241L433 241L433 289Z" fill="#CA3E47"/>
<path d="M864 385L768 289L864 289L864 385Z" fill="#CA3E47"/>
<path d="M577 673L481 769L481 673L577 673Z" fill="#CA3E47"/>
<path d="M194 289L290 385L194 385L194 289Z" fill="#CA3E47"/>
<path d="M2 288L98 384L2.00002 384L2 288Z" fill="#CA3E47"/>
<path d="M194 193L290 289L194 289L194 193Z" fill="#CA3E47"/>
<path d="M2 192L98 288L2.00002 288L2 192Z" fill="#CA3E47"/>
<path d="M673 193L577 97L673 97L673 193Z" fill="#CA3E47"/>
<path d="M384 865L288 961L288 865L384 865Z" fill="#CA3E47"/>
<path d="M192 864L96 960L96 864L192 864Z" fill="#CA3E47"/>
<path d="M385 481L481 577L385 577L385 481Z" fill="#CA3E47"/>
<path d="M672 1153L768 1057L768 1153L672 1153Z" fill="#CA3E47"/>
<path d="M577 97L481 1L577 0.999993L577 97Z" fill="#CA3E47"/>
<path d="M288 961L192 1057L192 961L288 961Z" fill="#CA3E47"/>
<path d="M96 960L5.1383e-06 1056L-7.45058e-06 960L96 960Z" fill="#CA3E47"/>
<path d="M481 577L577 673L481 673L481 577Z" fill="#CA3E47"/>
<path d="M768 1057L864 961L864 1057L768 1057Z" fill="#CA3E47"/>
<path d="M721 97C721 70.4903 699.51 49 673 49V49V97H721V97Z" fill="#1363DF"/>
<path d="M288 817C261.49 817 240 838.49 240 865V865L288 865L288 817V817Z" fill="#1363DF"/>
<path d="M96 816C69.4903 816 48 837.49 48 864V864L96 864L96 816V816Z" fill="#1363DF"/>
<path d="M192 1010C165.49 1010 144 1031.49 144 1058V1058L192 1058L192 1010V1010Z" fill="#1363DF"/>
<path d="M337 577C337 603.51 358.49 625 385 625V625L385 577L337 577V577Z" fill="#1363DF"/>
<path d="M145 576C145 602.51 166.49 624 193 624V624L193 576L145 576V576Z" fill="#1363DF"/>
<path d="M290 145C263.49 145 242 166.49 242 193V193L290 193L290 145V145Z" fill="#1363DF"/>
<path d="M98 144C71.4903 144 50 165.49 50 192V192L98 192L98 144V144Z" fill="#1363DF"/>
<path d="M768 529C794.51 529 816 507.51 816 481V481L768 481L768 529V529Z" fill="#1363DF"/>
<path d="M720 770C720 743.49 698.51 722 672 722V722L672 770L720 770V770Z" fill="#1363DF"/>
<path d="M625 97C625 70.4903 603.51 49 577 49V49V97H625V97Z" fill="#272323"/>
<path d="M288 913C261.49 913 240 934.49 240 961V961L288 961L288 913V913Z" fill="#272323"/>
<path d="M96 912C69.4903 912 48 933.49 48 960V960L96 960L96 912V912Z" fill="#272323"/>
<path d="M433 577C433 603.51 454.49 625 481 625V625L481 577L433 577V577Z" fill="#272323"/>
<path d="M768 1105C794.51 1105 816 1083.51 816 1057V1057L768 1057L768 1105V1105Z" fill="#272323"/>
<path d="M722 1C722 27.5097 743.49 49 770 49V49V49C770 22.4903 748.51 1 722 1V1V1Z" fill="#1363DF"/>
<path d="M192 816C218.51 816 240 794.51 240 768V768V768C213.49 768 192 789.49 192 816V816V816Z" fill="#1363DF"/>
<path d="M0 815C26.5097 815 48 793.51 48 767V767V767C21.4903 767 -1.15877e-06 788.49 0 815V815V815Z" fill="#1363DF"/>
<path d="M336 673C336 646.49 314.51 625 288 625V625V625C288 651.51 309.49 673 336 673V673V673Z" fill="#1363DF"/>
<path d="M144 672C144 645.49 122.51 624 96 624V624V624C96 650.51 117.49 672 144 672V672V672Z" fill="#1363DF"/>
<path d="M194 144C220.51 144 242 122.51 242 96V96V96C215.49 96 194 117.49 194 144V144V144Z" fill="#1363DF"/>
<path d="M2 143C28.5097 143 50 121.51 50 95V95V95C23.4903 95 2 116.49 2 143V143V143Z" fill="#1363DF"/>
<path d="M98 240C124.51 240 146 218.51 146 192V192V192C119.49 192 98 213.49 98 240V240V240Z" fill="#1363DF"/>
<path d="M290 241C316.51 241 338 219.51 338 193V193V193C311.49 193 290 214.49 290 241V241V241Z" fill="#1363DF"/>
<path d="M625 49C625 75.5097 646.49 97 673 97V97V97C673 70.4903 651.51 49 625 49V49V49Z" fill="#CA3E47"/>
<path d="M240 913C266.51 913 288 891.51 288 865V865V865C261.49 865 240 886.49 240 913V913V913Z" fill="#CA3E47"/>
<path d="M48 912C74.5097 912 96 890.51 96 864V864V864C69.4903 864 48 885.49 48 912V912V912Z" fill="#CA3E47"/>
<path d="M433 625C433 598.49 411.51 577 385 577V577V577C385 603.51 406.49 625 433 625V625V625Z" fill="#CA3E47"/>
<path d="M768 193C768 219.51 789.49 241 816 241V241V241C816 214.49 794.51 193 768 193V193V193Z" fill="#CA3E47"/>
<path d="M384 769C410.51 769 432 747.51 432 721V721V721C405.49 721 384 742.49 384 769V769V769Z" fill="#CA3E47"/>
<path d="M290 481C290 454.49 268.51 433 242 433V433V433C242 459.51 263.49 481 290 481V481V481Z" fill="#CA3E47"/>
<path d="M98 480C98 453.49 76.5097 432 50 432V432V432C50 458.51 71.4903 480 98 480V480V480Z" fill="#CA3E47"/>
<path d="M288 721C314.51 721 336 699.51 336 673V673V673C309.49 673 288 694.49 288 721V721V721Z" fill="#1363DF"/>
<path d="M145 720C118.49 720 97 698.51 97 672V672V672C123.51 672 145 693.49 145 720V720V720Z" fill="#1363DF"/>
<path d="M241 577C241 550.49 219.51 529 193 529V529V529C193 555.51 214.49 577 241 577V577V577Z" fill="#1363DF"/>
<path d="M49 576C49 549.49 27.5097 528 1 528V528V528C1 554.51 22.4903 576 49 576V576V576Z" fill="#1363DF"/>
<path d="M290 49C316.51 49 338 27.5097 338 1V1V1C311.49 1 290 22.4903 290 49V49V49Z" fill="#1363DF"/>
<path d="M98 48C124.51 48 146 26.5097 146 0V0V0C119.49 1.15877e-06 98 21.4903 98 48V48V48Z" fill="#1363DF"/>
<path d="M768 625C741.49 625 720 646.49 720 673V673V673C746.51 673 768 651.51 768 625V625V625Z" fill="#1363DF"/>
<path d="M817 193C817 166.49 795.51 145 769 145V145L769 193L817 193V193Z" fill="#1363DF"/>
<path d="M384 721C357.49 721 336 742.49 336 769V769L384 769L384 721V721Z" fill="#1363DF"/>
<path d="M192 720C165.49 720 144 741.49 144 768V768L192 768L192 720V720Z" fill="#1363DF"/>
<path d="M241 481C241 507.51 262.49 529 289 529V529L289 481L241 481V481Z" fill="#1363DF"/>
<path d="M49 480C49 506.51 70.4903 528 97 528V528L97 480L49 480V480Z" fill="#1363DF"/>
<path d="M386 49C359.49 49 338 70.4903 338 97V97L386 97L386 49V49Z" fill="#1363DF"/>
<path d="M194 48C167.49 48 146 69.4903 146 96V96L194 96L194 48V48Z" fill="#1363DF"/>
<path d="M672 625C698.51 625 720 603.51 720 577V577L672 577L672 625V625Z" fill="#1363DF"/>
<path d="M816 866C816 839.49 794.51 818 768 818V818L768 866L816 866V866Z" fill="#1363DF"/>
<path d="M816 289C816 262.49 794.51 241 768 241V241L768 289L816 289V289Z" fill="#272323"/>
<path d="M481 721C454.49 721 433 742.49 433 769V769L481 769L481 721V721Z" fill="#272323"/>
<path d="M242 385C242 411.51 263.49 433 290 433V433L290 385L242 385V385Z" fill="#272323"/>
<path d="M50 384C50 410.51 71.4903 432 98 432V432L98 384L50 384V384Z" fill="#272323"/>
<path d="M768 337C768 310.49 746.51 289 720 289V289L720 337L768 337V337Z" fill="#272323"/>
<path d="M528 770C501.49 770 480 791.49 480 818V818L528 818L528 770V770Z" fill="#272323"/>
<path d="M290 337C290 363.51 311.49 385 338 385V385L338 337L290 337V337Z" fill="#272323"/>
<path d="M98 336C98 362.51 119.49 384 146 384V384L146 336L98 336V336Z" fill="#272323"/>
<path d="M576 145C576 118.49 554.51 97 528 97V97L528 145L576 145V145Z" fill="#272323"/>
<path d="M336 962C309.49 962 288 983.49 288 1010V1010L336 1010L336 962V962Z" fill="#272323"/>
<path d="M144 961C117.49 961 96 982.49 96 1009V1009L144 1009L144 961V961Z" fill="#272323"/>
<path d="M482 529C482 555.51 503.49 577 530 577V577L530 529L482 529V529Z" fill="#272323"/>
<path d="M720 1056C746.51 1056 768 1034.51 768 1008V1008L720 1008L720 1056V1056Z" fill="#272323"/>
</g>
<defs>
<clipPath id="clip0_103_1928">
<rect width="816" height="1104" fill="white"/>
</clipPath>
</defs>
</svg>
