<svg width="100" height="100" viewBox="0 0 100 100" fill="none" xmlns="http://www.w3.org/2000/svg">
<g clip-path="url(#clip0_74_42)">
<path d="M55.7656 50C55.7656 63.9782 44.4031 75.3125 30.38 75.3125C27.0515 75.317 23.7547 74.6658 20.6778 73.3961C17.601 72.1264 14.8044 70.2631 12.4476 67.9127C10.0909 65.5622 8.22014 62.7705 6.94228 59.6971C5.66442 56.6236 5.00443 53.3285 5 50C5 36.0163 16.3625 24.6875 30.38 24.6875C33.709 24.6824 37.0064 25.333 40.0839 26.6024C43.1614 27.8717 45.9587 29.7349 48.316 32.0854C50.6734 34.436 52.5446 37.2279 53.8228 40.3017C55.101 43.3755 55.7612 46.671 55.7656 50V50ZM83.6094 50C83.6094 63.1625 77.9281 73.8275 70.9194 73.8275C63.9106 73.8275 58.2294 63.1569 58.2294 50C58.2294 36.8375 63.9106 26.1725 70.9194 26.1725C77.9281 26.1725 83.6094 36.8432 83.6094 50ZM95 50C95 61.79 93.0031 71.3469 90.5338 71.3469C88.07 71.3469 86.0731 61.7844 86.0731 50C86.0731 38.21 88.07 28.6532 90.5394 28.6532C93.0031 28.6532 95 38.21 95 50Z" fill="black"/>
</g>
<defs>
<clipPath id="clip0_74_42">
<rect width="90" height="90" fill="white" transform="translate(5 5)"/>
</clipPath>
</defs>
</svg>
