<svg width="100" height="100" viewBox="0 0 100 100" fill="none" xmlns="http://www.w3.org/2000/svg">
<g clip-path="url(#clip0_74_42)">
<path d="M24.6656 61.5266C24.6656 66.5805 20.5448 70.7082 15.491 70.7082C10.4371 70.7075 6.30939 66.5805 6.30939 61.5266C6.30939 56.4728 10.4371 52.3451 15.491 52.3451H24.6656V61.5266ZM29.2925 61.5266C29.2925 56.4728 33.4196 52.3451 38.4734 52.3451C43.5272 52.3451 47.6549 56.4728 47.6549 61.5266V84.5098C47.6549 89.5629 43.5272 93.6906 38.4734 93.6906C33.4196 93.6906 29.2918 89.5629 29.2918 84.5091V61.526L29.2925 61.5266ZM38.4734 24.6656C33.4196 24.6656 29.2918 20.5448 29.2918 15.491C29.2925 10.4371 33.4196 6.30939 38.4734 6.30939C43.5272 6.30939 47.6549 10.4371 47.6549 15.491V24.6656H38.4734ZM38.4734 29.2925C43.5272 29.2925 47.6549 33.4196 47.6549 38.4734C47.6549 43.5272 43.5272 47.6549 38.4734 47.6549H15.4903C10.4378 47.6549 6.30939 43.5272 6.30939 38.4734C6.30939 33.4196 10.4371 29.2918 15.491 29.2918H38.4741L38.4734 29.2925ZM75.3344 38.4734C75.3344 33.4196 79.4553 29.2918 84.5091 29.2918C89.5629 29.2918 93.6906 33.4196 93.6906 38.4734C93.6906 43.5272 89.5629 47.6549 84.5091 47.6549H75.3344V38.4734ZM70.7075 38.4734C70.7075 43.5272 66.5805 47.6549 61.5266 47.6549C56.4728 47.6549 52.3451 43.5272 52.3451 38.4734V15.4903C52.3451 10.4378 56.4728 6.30939 61.5266 6.30939C66.5805 6.30939 70.7082 10.4371 70.7082 15.491L70.7075 38.4734ZM61.5266 75.3344C66.5805 75.3344 70.7082 79.4553 70.7082 84.5091C70.7082 89.5629 66.5805 93.6906 61.5266 93.6906C56.4728 93.6906 52.3451 89.5629 52.3451 84.5091V75.3344H61.5266ZM61.5266 70.7075C56.4728 70.7075 52.3451 66.5805 52.3451 61.5266C52.3451 56.4728 56.4728 52.3451 61.5266 52.3451H84.5098C89.5629 52.3451 93.6906 56.4728 93.6906 61.5266C93.6906 66.5805 89.5629 70.7082 84.5091 70.7082L61.5266 70.7075Z" fill="black"/>
</g>
<defs>
<clipPath id="clip0_74_42">
<rect width="88" height="88" fill="white" transform="translate(6 6)"/>
</clipPath>
</defs>
</svg>
